<?xml version="1.0" encoding="UTF-8" standalone="no"?>
<svg
   version="1.1"
   viewBox="0 0 780.21729 767.33405"
   width="780.21729pt"
   height="767.33405pt"
   id="svg17"
   xmlns="http://www.w3.org/2000/svg"
   xmlns:svg="http://www.w3.org/2000/svg">
  <defs
     id="defs17" />
  <path
     d="m 101.89789,100.21532 c 135.86385,-133.620424 440.55764,-133.620424 576.42149,0 135.86385,133.62041 135.86385,433.28299 0,566.90342 -135.86385,133.62041 -440.55764,133.62041 -576.42149,0 -135.863848,-133.62043 -135.863848,-433.28301 0,-566.90342 z"
     fill="#f7feff"
     id="path1"
     style="fill:#e6ecf1;fill-opacity:1;stroke-width:0.823692" />
  <path
     d="m 394.10865,86.427039 c 16.22,0.66 32.21,2.17 48.16,5.23 11.44,2.33 22.75,5.41 33.94,8.750001 2.97,0.93 7.08,2.48 8.58,5.43 1.46,2.89 0.12,5.57 -1.48,8.02 -2.7,3.86 -5.46,7.67 -8.08,11.58 -16.4,-6.08 -33.76,-9.84 -50.96,-12.85 -2.19,-0.46 -4.39,-1.2 -6.55,-1.83 10.92,8.93 21.7,17.58 31.15,28.14 9.73,10.58 17.76,22.5 25.16,34.79 2.28,4.09 5,8.41 6.09,12.99 1.61,7.99 -7.22,15.87 -14.92,12.91 -4.65,-1.61 -6.89,-6.88 -9.17,-10.85 -8.34,-16 -19.59,-29.96 -32.52,-42.47 -7.72,-7.52 -15.98,-14.33 -24.98,-20.27 -0.19,27.54 -0.08,55.08 -0.12,82.61 11.29,-0.49 22.41,-2.24 33.66,-3.13 1.98,-0.09 3.99,-0.34 5.87,0.41 3.6,1.29 6.05,5.07 6.62,8.74 0.81,5.94 -3.58,11.78 -9.61,12.41 -12.04,1.44 -24.19,3.53 -36.33,3.57 -0.45,17.08 -0.16,34.22 -0.13,51.3 12.58,-0.46 25.1,-1.6 37.66,-2.36 6.01,-0.32 11.84,5.01 11.55,11.11 0.09,5.72 -4.99,10.59 -10.59,11.1 -12.81,1.04 -25.75,2.01 -38.61,1.71 -0.52,23.67 -0.06,47.38 -0.23,71.05 9.28,0.03 18.56,-0.03 27.84,-0.08 2.7,0.04 5.21,0.05 7.57,1.53 3.93,2.34 5.68,7.39 4.72,11.75 -1.62,5.29 -6.72,9.24 -12.29,9.36 -9.22,0.37 -18.55,-0.12 -27.77,-0.21 -0.02,49.11 0.04,98.22 0.09,147.33 7.42,0.13 14.76,0.94 22.17,1.36 4.8,0.4 9.76,0.57 14.49,1.55 3.11,0.63 5.92,2.29 7.7,4.96 4.44,5.63 0.72,15.4 -6.15,16.99 -3.12,0.41 -6.4,0.01 -9.53,-0.25 -9.5,-1.03 -19.08,-1.41 -28.57,-2.55 -0.28,27.7 -0.27,55.43 0.13,83.12 10.19,-7.52 20.82,-15.44 29.49,-24.66 9.05,-9.12 16.91,-19.44 23.63,-30.39 3.69,-5.94 6.44,-12.11 9.77,-18.21 1.49,-2.71 3.5,-5.27 6.35,-6.63 5.17,-1.72 10.82,0.03 13.39,5 2.46,4 1.82,8.14 -0.2,12.16 -7.14,14.48 -15.29,28.96 -25.54,41.48 -11.22,14.38 -24.18,27.25 -39.1,37.78 11.62,-1.8 23.18,-3.95 34.63,-6.63 24.28,-5.85 48.02,-14.72 69.95,-26.7 20.49,-10.97 39.59,-24.65 57.04,-39.98 7.48,-6.87 14.94,-13.67 21.67,-21.29 6.93,-7.85 13.77,-15.66 19.62,-24.37 5.17,-7.82 10.57,-15.77 14.97,-24.03 4.83,-8.99 9.02,-18.38 13,-27.78 6.57,-16.09 11.12,-33.33 14.99,-50.27 3.49,-15.69 4.74,-31.61 5.07,-47.65 -8.25,-0.07 -16.5,-0.07 -24.75,-0.09 -0.12,5.85 -0.19,11.7 -0.35,17.55 -0.89,12.49 -0.86,25.45 -2.6,37.85 -0.22,1.88 -1.89,1.81 -3.28,2.65 -1.48,15.93 -5.39,31.4 -13.46,45.32 -5.94,11.01 -14.18,20.28 -23.52,28.51 -17.06,13.88 -38.25,22.5 -60.33,23.17 -20.21,1.06 -40.8,-3.76 -58.1,-14.36 -13.12,-7.83 -23.75,-19.33 -31.85,-32.18 -9.1,-14.83 -14.72,-31.43 -14.47,-48.96 -0.34,-17.42 3.46,-34.94 12.42,-49.99 10.51,-19.03 27.88,-34.8 48.25,-42.58 -0.17,-8.15 -0.01,-16.28 -0.4,-24.43 0.09,-30.99 -0.25,-62.02 0.29,-93 -0.01,-26.68 -0.03,-53.35 0.07,-80.03 0.2,-18.33 6.38,-36.37 18.56,-50.2 9.75,-11.87 23.32,-20.200001 38.24,-23.780001 16.32,-4.21 33.96,-2.39 49.14,4.89 12.58,5.980001 24.32,15.390001 31.61,27.380001 7.39,11.72 12.18,25.81 12.07,39.74 0.05,17.52 0.14,34.47 0.31,52.01 0.05,3.95 -1.15,7.39 -3.8,10.34 -3.15,3.67 -8.56,5.59 -13.13,3.5 -5,-2.17 -7.46,-7.58 -7.3,-12.84 0.04,-15 -0.14,-30.01 0.17,-45.01 -0.02,-6.88 0.42,-13.27 -1.3,-20.02 -5.06,-20.57 -23.69,-36.53 -44.77,-38.53 -10.57,-1.4 -21.03,1.24 -30.3,6.29 -10.9,6.1 -18.82,16.17 -23.16,27.79 -3.92,10.5 -2.88,23.39 -2.85,34.47 -0.02,60.67 0.19,121.33 0.01,182 -0.14,4.36 0.43,8.98 -0.39,13.26 -1.67,3.97 -7.28,4.52 -10.83,6.13 -8.15,3.5 -16.8,7.69 -23.36,13.74 -12.07,10.49 -20.91,24.42 -24.45,40.08 -3.58,13.94 -1.91,28.24 2.44,41.78 5.55,15.83 17.07,29.9 31.67,38.21 24.5,14.89 58.58,15.49 82.5,-0.94 12.8,-8.5 23.36,-20.31 29.57,-34.43 5.66,-12.43 7.7,-26.5 5.84,-40.03 -2.13,-13.04 -8.38,-25.49 -17.13,-35.35 -3.47,-4 -7.42,-6.74 -7.92,-12.43 -1.09,-5.87 2.32,-11.84 8.34,-12.96 4.99,-1.05 8.72,1.55 12.1,4.84 5.09,5.14 9.42,11.1 13.73,16.89 0.56,-15.58 0.14,-31.2 0.27,-46.79 -0.35,-26.99 -0.1,-54 -0.19,-81 0.08,-4.29 -0.14,-8.8 0.73,-13.02 1.12,-5.22 6.02,-9.1 11.38,-8.78 6.24,0.1 11.67,5.5 11.61,11.77 0.2,15.69 0.05,31.35 -0.08,47.03 0.13,20.65 0,41.28 -0.29,61.93 7.66,-0.1 15.33,-0.05 23,-0.07 -0.53,-13.01 -2.09,-25.99 -4,-38.86 -0.75,-5.36 -2.24,-10.62 -2.76,-16 -0.77,-6.64 5.46,-13.66 12.36,-12.35 4.97,0.8 8.45,6.06 9.84,10.54 2.42,8.34 3.53,17.19 4.79,25.78 2.28,15.91 3.34,31.96 3.16,48.03 -0.52,28.84 -5.22,57.19 -12.69,85.01 -2.32,7.44 -4.78,14.91 -7.49,22.22 -5.14,12.61 -10.63,25.17 -17.08,37.17 -5.22,9 -10.64,17.92 -16.54,26.5 -25.17,35.67 -59.56,64.89 -97.44,86.32 -31.61,18.47 -66.43,30.36 -102.39,36.87 -26.59,4.54 -53.71,5.65 -80.55,2.83 -19.75,-1.79 -38.91,-6.18 -57.9,-11.78 -15.04,-4.6 -29.05,-11 -43.34,-17.48 -22.49,-10.69 -43.24,-24.6 -62.2,-40.69 -27.59,-23.71 -50.13,-52.45 -67.89,-84.13 -15.66,-29.36 -27.669999,-59.85 -32.839999,-92.87 -4.63,-26.93 -4.69,-53.76 -3.35,-80.98 0.95,-12.86 2.3,-25.45 5.28,-38 5.979999,-28.64 16.009999,-56.7 30.859999,-81.97 5.47,-10.57 12.27,-20.18 18.98,-29.98 8.46,-11.71 17.69,-22.88 27.54,-33.45 20.41,-21.04 44.05,-39.1 69.68,-53.32 17.08,-9.61 35.16,-16.96 53.74,-23.1 32.03,-10.000001 65.39,-15.280001 98.98,-14.410001 z"
     fill="#18262d"
     id="path2" />
  <path
     d="m 357.04865,110.81704 c -12.13,9.22 -24.13,19.13 -34.08,30.73 -10.25,11.01 -18.78,23.69 -26.27,36.69 -2.17,4.08 -5.03,8.74 -5.43,13.41 -0.23,5.86 5.76,12.02 11.84,10.7 5.08,-0.69 8.22,-6.14 10.76,-10.05 15.8,-25.59 36.14,-49.63 62.06,-65.4 0.09,27.13 -0.17,54.25 0.12,81.38 -6.66,-0.17 -13.32,-0.94 -19.94,-1.64 -5.32,-0.53 -10.7,-1.76 -16.04,-1.75 -4.04,-0.03 -8.04,2.51 -9.67,6.23 -2.07,4.51 -0.84,10.11 2.83,13.42 2.52,2.04 5.7,2.94 8.85,3.41 11.27,1.5 22.56,2.17 33.86,3.27 0,16.8 -0.02,33.6 -0.04,50.39 -13.72,-0.64 -27.39,-2.45 -40.81,-5.33 -6.72,-1.42 -13.4,-2.71 -19.95,-4.77 -14.32,-4.39 -28.92,-9.46 -42.08,-16.67 3.54,-6.21 8.57,-12.37 10.77,-19.18 0.39,-5.92 -4.46,-12.74 -10.69,-13.14 -3.89,-0.25 -7.1,1.76 -9.54,4.63 -4.12,4.81 -6.9,11.11 -9.89,16.67 -16.13,-11.83 -32.23,-24.21 -45.13,-39.64 -4.4,-5.16 -8.96,-10.21 -13.12,-15.57 5.09,-5.93 11.34,-11.04 17.27,-16.3 12.28,-10.26 25.41,-20.23 39.75,-27.43 18.24,-10.52 37.95,-18.54 58.15,-24.41 15.26,-3.96 30.84,-7.21 46.42,-9.65 z"
     fill="#f7feff"
     id="path3"
     style="fill:#e6ecf1;fill-opacity:1" />
  <path
     d="m 263.10865,151.73704 c 5.34,-0.07 10.03,3.7 11.19,8.9 1,3.91 -0.8,7.09 -3.29,9.92 -4.87,5.15 -10.05,9.97 -15.39,14.63 -5.62,5.05 -10.96,10.38 -16.41,15.61 -3.1,2.88 -6.51,5.13 -10.95,4.48 -6.06,-1.18 -10.16,-7.6 -9.2,-13.63 0.56,-4.18 4,-7.35 6.87,-10.16 8.87,-8.13 17.51,-16.54 26.59,-24.43 2.98,-2.49 6.47,-5.44 10.59,-5.32 z"
     fill="#18262d"
     id="path4" />
  <path
     d="m 535.49865,190.10704 c 2.33,-1.08 5.08,-0.96 7.61,-1.02 3.11,0.09 6.12,-0.21 8.72,1.82 5.73,4.13 5.81,13.41 0.44,17.87 -2.09,1.87 -5.51,1.96 -8.16,2.07 -3.67,-0.01 -7.82,0.16 -10.71,-2.52 -5.47,-4.65 -4.73,-15.22 2.1,-18.22 z"
     fill="#18262d"
     id="path5" />
  <path
     d="m 179.28865,206.40704 c 3.43,4.57 7.37,8.64 11.19,12.88 10.82,12.46 23.43,23.47 36.4,33.62 9.47,7.25 19.47,13.21 29.72,19.27 5.65,3.35 11.51,5.76 17.45,8.56 21.61,10 44.55,16.55 68.05,20.29 11.17,1.72 22.46,2.5 33.8,3.2 0.23,21.15 -0.04,42.3 0.04,63.44 0.03,2.27 0.24,4.52 0.42,6.78 -47.95,0.05 -95.9,-0.02 -143.85,0.12 0.58,-13.38 2.04,-26.82 5.01,-39.89 0.7,-3.52 1.29,-6.79 -0.15,-10.24 -1.78,-4.54 -6.49,-7.1 -11.28,-6.57 -4.69,0.5 -7.86,3.99 -9.28,8.3 -4.52,15.97 -5.79,31.94 -6.87,48.41 -32.88,-0.11 -65.76,-0.08 -98.63,0.01 0.37,-22.75 4.39,-45.21 10.36,-67.13 4.82,-16.04 11.09,-31.6 18.71,-46.52 4.66,-9.16 10.14,-17.67 15.75,-26.26 6.52,-9.78 13.46,-19.97 21.65,-28.41 0.44,-0.69 0.94,-0.65 1.51,0.14 z"
     fill="#f7feff"
     id="path6"
     style="fill:#e6ecf1;fill-opacity:1" />
  <path
     d="m 536.24865,223.72704 c 3.83,-0.8 8.04,-0.61 11.93,-0.32 4.79,0.98 8.13,6.62 8.08,11.26 0.09,5.08 -3.98,9.69 -9.07,10.09 -3.74,0.2 -8.02,0.57 -11.59,-0.74 -7.96,-3.17 -7.91,-17.89 0.65,-20.29 z"
     fill="#18262d"
     id="path7" />
  <path
     d="m 534.73865,258.49704 c 3.69,-1.62 8.47,-1.06 12.43,-1.03 3.82,-0.04 6.93,3.46 8.21,6.76 2.3,5.28 -0.89,12.33 -6.44,13.95 -3.13,0.62 -6.45,0.5 -9.62,0.25 -2.66,-0.29 -5.29,-0.68 -7.04,-2.93 -3.8,-4.78 -3.19,-13.86 2.46,-17 z"
     fill="#18262d"
     id="path8" />
  <path
     d="m 151.09865,285.81704 c 6.24,-1.73 13.5,2.34 14.62,8.85 1.01,5 -2.3,9.3 -3.94,13.79 -2.27,5.2 -3.47,12.23 -7.97,15.93 -4.47,3.89 -11.59,3.65 -15.5,-0.91 -3.11,-3.42 -2.91,-8.16 -1.53,-12.3 2.08,-6.14 4.22,-12.29 6.7,-18.27 1.47,-3.47 3.76,-6.3 7.62,-7.09 z"
     fill="#18262d"
     id="path9" />
  <path
     d="m 536.62865,291.35704 c 3.38,-0.72 7.04,-0.56 10.48,-0.34 3.37,0.26 5.96,2.2 7.48,5.18 3.26,5.35 0.6,13.63 -5.63,15.34 -3.2,0.61 -6.62,0.37 -9.87,0.36 -4.69,0.12 -8.45,-3.65 -8.96,-8.19 -0.6,-5.05 1.04,-10.86 6.5,-12.35 z"
     fill="#18262d"
     id="path10" />
  <path
     d="m 535.63865,325.33704 c 3.18,-1.3 7.12,-1.06 10.5,-0.93 5.78,0.04 10.15,5.73 9.81,11.27 -0.15,5.28 -4.31,10.21 -9.8,10.26 -3.37,0.03 -7.38,0.53 -10.56,-0.77 -7.59,-3.62 -7.73,-16.33 0.05,-19.83 z"
     fill="#18262d"
     id="path11" />
  <path
     d="m 550.74865,363.05704 c 1.37,2.05 1.77,4.16 1.7,6.61 -0.07,12.34 0.03,24.7 -0.06,37.03 -0.16,5.49 -4.3,9.95 -9.46,11.37 -4.62,1.15 -9.18,0.67 -13.67,2.57 -7.26,2.51 -13.4,7.58 -16.83,14.49 -2.69,5.93 -3.61,12.7 -1.9,19.04 1.79,7.4 7.28,13.83 14.03,17.23 10.81,4.98 24.43,3.25 32.92,-5.35 4.88,-4.89 7.73,-11.2 7.54,-18.18 0.17,-4.67 -1.46,-8.84 1.2,-13.06 2.97,-5 9.6,-7.14 14.68,-3.98 4.58,3.15 6.77,9.49 6.98,14.85 0.82,11.72 -2.85,23.37 -10.29,32.47 -13.72,18.37 -40.53,24.83 -61.25,15.16 -16.91,-7.21 -28.72,-24.3 -29.64,-42.64 -0.46,-10.95 1.68,-22.27 8.08,-31.36 8.2,-12.21 21.54,-20.5 35.96,-23.05 0,-8.86 0.01,-17.73 0.01,-26.59 -0.03,-3.17 0.6,-6.17 2.85,-8.51 4.67,-4.7 13.68,-3.86 17.15,1.9 z"
     fill="#18262d"
     id="path12" />
  <path
     d="m 111.34865,397.11704 c 32.96,-0.14 66.04,-0.27 99,-0.04 0.28,14.69 1.6,29.27 4.86,43.62 0.82,3.51 2.1,7.58 4.66,10.21 2.03,2.11 4.52,2.29 7.19,3.02 5.31,-0.89 9.9,-3.68 11.24,-9.2 0.77,-4.68 -1.13,-9.94 -1.96,-14.57 -2.06,-10.93 -3.61,-22.14 -3.43,-33.27 47.7,0.17 95.4,0.04 143.09,0.07 0.04,24.08 -0.09,48.15 -0.04,72.23 -5.92,0.18 -11.83,0.64 -17.69,1.49 -16.14,2.36 -32.48,5.41 -48.12,10.06 -11.35,3.07 -22.51,6.75 -33.27,11.5 -20.94,9.2 -41.05,20.92 -58.82,35.34 -12.38,10.28 -23.91,21.5 -34.19,33.88 -2.32,2.79 -4.18,5.87 -5.96,9.02 -3.27,-3.36 -5.8,-7.22 -8.65,-10.9 -23.07,-29.32 -39.92,-63.37 -49.49,-99.41 -2.68,-10.67 -4.44,-21.59 -6.06,-32.47 -1.12,-10.09 -2.69,-20.41 -2.36,-30.58 z"
     fill="#f7feff"
     id="path13"
     style="fill:#e6ecf1;fill-opacity:1" />
  <path
     d="m 155.87865,447.89704 c 3.19,4.48 4.41,10.49 6.46,15.57 1.3,4.18 3.98,8.8 3.81,13.22 -0.79,8.73 -13,13.51 -19.38,7.33 -3.93,-4.37 -5.42,-11.38 -7.29,-16.85 -1.46,-5.22 -4.19,-10.14 -2.52,-15.66 2.26,-7.76 14.01,-10.09 18.92,-3.61 z"
     fill="#18262d"
     id="path14" />
  <path
     d="m 375.91865,491.36704 c 0.19,17.6 -0.16,35.21 0.15,52.81 -10.98,0.6 -22.03,1.78 -32.96,3.03 -3.57,0.47 -7.22,0.97 -10.07,3.38 -4.63,3.74 -4.77,11.66 -0.73,15.88 2.25,2.61 5.47,3.32 8.78,3.32 12.08,-0.95 23.39,-3.04 35.2,-2.83 -0.57,27.7 -0.48,55.4 -0.44,83.1 -8.15,-5.64 -16.03,-12.1 -23.18,-18.95 -13.26,-13.57 -25.44,-28.4 -35.39,-44.58 -2.27,-3.4 -4.46,-7.75 -7.82,-10.19 -5.94,-4.01 -15.16,-0.46 -16.88,6.49 -1.04,4.47 1.53,8.98 3.65,12.74 3.41,5.55 6.99,11 10.54,16.45 8.25,12.6 18.03,23.71 28.56,34.43 7.22,6.84 13.81,13.51 22.33,18.74 -14.3,-1.24 -27.63,-4.63 -41.49,-8.07 -22.39,-6.08 -44,-14.91 -64.22,-26.28 -16.16,-9.52 -31.62,-19.86 -45.66,-32.37 -3.84,-3.41 -8.01,-6.8 -11.16,-10.87 0.06,-1.93 1.64,-3.65 2.72,-5.18 4.51,-5.78 9.23,-11.44 14.06,-16.95 8.73,-9.34 18.31,-17.74 28.36,-25.62 4.04,-3.52 8.7,-6.21 12.69,-9.75 1.22,3.18 2.7,6.21 4.39,9.17 2.44,4.31 5.02,9.12 8.57,12.61 2.74,2.95 7.54,3 11.06,1.66 4.76,-1.95 7.12,-6.98 7.26,-11.88 -0.04,-2.26 -1.49,-4.58 -2.54,-6.53 -3.06,-5.28 -6.17,-10.53 -9.31,-15.76 11.67,-5.6 23.24,-11 35.73,-14.58 11.82,-3.27 23.36,-6.85 35.49,-8.85 10.76,-1.62 21.48,-3.48 32.31,-4.57 z"
     fill="#f7feff"
     id="path15"
     style="fill:#e6ecf1;fill-opacity:1" />
  <path
     d="m 229.11865,569.18704 c 4.25,-0.48 7.54,2.35 10.5,4.97 6.14,5.87 12.34,11.66 18.48,17.52 3.61,3.4 7.38,6.64 10.96,10.06 2.67,2.63 5.27,6.01 5.32,9.93 0.05,6.56 -5.86,12.19 -12.33,12.2 -3.81,-0.61 -7.22,-2.48 -10.01,-5.1 -9.08,-8.52 -18.35,-17.07 -27.09,-25.95 -2.77,-3.08 -5.88,-5.67 -6.21,-10.11 -0.66,-6.46 3.57,-13.08 10.38,-13.52 z"
     fill="#18262d"
     id="path16" />
  <path
     d="m 548.58865,590.50704 c -0.83,3.11 -3.13,5.98 -5.38,8.21 -4.08,3.96 -8.08,7.98 -12.37,11.71 -3.82,3.49 -7.53,7.1 -11.29,10.65 -3.28,2.86 -6.89,5.09 -11.45,4.35 -7.59,-1.29 -11.78,-11.07 -7.85,-17.6 2.32,-3.47 5.8,-6.36 8.83,-9.2 5.68,-5.33 11.43,-10.56 16.98,-16.03 2.98,-2.82 5.56,-5.5 9.89,-5.96 7.55,-1.27 14.33,6.57 12.64,13.87 z"
     fill="#18262d"
     id="path17" />
</svg>
