<?xml version="1.0" encoding="UTF-8" standalone="no"?>
<!DOCTYPE svg PUBLIC "-//W3C//DTD SVG 1.1//EN" "http://www.w3.org/Graphics/SVG/1.1/DTD/svg11.dtd">
<svg xmlns="http://www.w3.org/2000/svg" version="1.1" viewBox="0 0 690 690" width="690.0pt" height="690.0pt" xmlns:xlink="http://www.w3.org/1999/xlink">
<defs>
<path d="M 0.00 0.00 L 690.00 0.00 L 690.00 690.00 L 0.00 690.00 L 0.00 0.00 Z M 149.89 114.89 C 135.98 116.38 122.43 119.68 109.78 125.76 C 92.20 134.00 77.06 147.23 66.66 163.64 C 45.99 195.81 42.11 239.20 59.31 273.70 C 74.33 305.10 105.30 327.99 139.83 332.71 C 145.31 333.29 150.58 334.09 156.00 334.00 C 177.33 334.02 198.67 333.82 220.00 333.56 C 224.07 333.52 227.99 333.89 232.00 332.96 C 231.96 371.65 232.24 410.32 232.00 449.00 C 232.04 495.42 231.87 541.85 232.19 588.03 C 232.62 594.48 237.11 600.52 243.11 602.89 C 246.55 604.43 250.31 604.20 254.00 604.27 C 288.67 604.29 323.34 604.42 358.00 604.00 C 371.68 604.05 385.35 603.84 399.03 603.98 C 401.52 604.16 403.98 602.70 403.93 599.99 C 403.48 596.61 401.26 593.25 399.79 590.20 C 396.62 583.48 393.08 577.09 391.21 569.84 C 386.62 558.73 384.60 546.96 384.03 535.00 C 383.88 522.48 383.70 510.39 386.18 498.03 C 386.96 494.37 387.30 490.65 388.02 486.98 C 394.81 459.31 409.49 433.76 429.81 413.81 C 441.04 402.92 453.90 393.98 467.74 386.75 C 476.27 382.47 485.59 378.59 495.02 376.92 C 499.26 376.05 503.28 374.38 507.51 373.41 C 514.89 371.67 522.45 370.33 530.03 369.95 C 532.24 369.88 533.89 368.25 533.85 366.03 C 533.89 329.59 533.63 292.40 533.60 256.00 C 533.61 227.00 533.66 197.99 533.20 169.00 C 533.76 161.04 526.71 154.09 519.99 151.02 C 515.00 148.25 510.48 144.98 505.13 142.87 C 492.63 136.45 480.44 129.42 467.87 123.14 C 447.17 111.72 425.92 101.23 405.38 89.62 C 397.14 85.85 389.35 81.17 380.00 81.23 C 372.57 81.87 365.43 84.24 359.05 88.10 C 348.77 65.45 330.92 45.78 308.85 34.15 C 282.66 19.99 250.88 17.89 222.87 27.82 C 202.27 35.02 184.16 48.57 171.22 66.11 C 160.40 80.55 153.56 97.28 149.89 114.89 Z M 609.20 470.99 C 601.47 471.02 593.73 471.00 586.00 470.99 C 580.26 470.80 573.82 474.01 571.50 479.47 C 568.38 486.10 570.80 495.04 576.95 499.10 C 580.82 502.11 586.38 501.52 591.00 501.60 C 604.00 501.71 617.00 501.47 630.00 501.57 C 634.01 501.51 638.64 502.50 642.49 501.30 C 645.14 500.35 647.50 498.46 649.44 496.45 C 651.79 493.84 652.36 490.40 652.51 487.00 C 652.96 471.68 652.60 456.34 652.73 440.99 C 653.29 433.85 647.30 425.92 639.98 425.39 C 631.28 425.00 623.19 432.27 623.78 441.22 C 621.67 439.33 619.76 437.25 617.78 435.22 C 601.49 419.14 580.40 407.80 558.01 403.07 C 551.45 401.87 544.69 400.76 538.00 400.98 C 531.65 401.08 525.48 400.69 519.17 401.66 C 495.27 404.35 472.94 415.17 454.86 430.84 C 436.56 446.89 423.03 468.42 416.81 491.98 C 408.17 525.65 413.93 562.50 433.78 591.21 C 446.35 609.75 464.27 624.31 484.80 633.23 C 506.65 642.87 531.48 645.69 555.01 641.92 C 574.58 639.00 592.99 630.73 608.60 618.65 C 627.80 603.62 642.42 582.61 649.29 559.17 C 650.77 553.81 652.75 547.66 651.81 542.10 C 650.39 535.29 643.06 531.29 636.49 532.62 C 633.08 533.26 629.43 534.40 626.96 536.96 C 624.39 539.82 623.87 543.41 622.88 546.99 C 618.47 563.96 609.43 579.59 596.35 591.34 C 579.03 607.26 555.46 615.73 532.00 615.00 C 521.24 614.88 510.26 612.53 500.19 608.76 C 482.87 602.09 467.69 590.05 457.33 574.64 C 447.18 559.83 441.94 541.89 441.72 524.00 C 441.41 507.79 445.64 491.63 453.46 477.45 C 470.69 445.66 507.90 426.24 543.84 430.64 C 557.17 431.85 570.24 436.34 581.59 443.40 C 592.70 450.33 602.17 459.97 609.20 470.99 Z" id="p0" />
<path d="M 308.85 34.15 C 330.92 45.78 348.77 65.45 359.05 88.10 C 365.43 84.24 372.57 81.87 380.00 81.23 C 389.35 81.17 397.14 85.85 405.38 89.62 C 425.92 101.23 447.17 111.72 467.87 123.14 C 480.44 129.42 492.63 136.45 505.13 142.87 C 510.48 144.98 515.00 148.25 519.99 151.02 C 526.71 154.09 533.76 161.04 533.20 169.00 C 533.66 197.99 533.61 227.00 533.60 256.00 C 533.63 292.40 533.89 329.59 533.85 366.03 C 533.89 368.25 532.24 369.88 530.03 369.95 C 522.45 370.33 514.89 371.67 507.51 373.41 C 503.28 374.38 499.26 376.05 495.02 376.92 C 485.59 378.59 476.27 382.47 467.74 386.75 C 453.90 393.98 441.04 402.92 429.81 413.81 C 409.49 433.76 394.81 459.31 388.02 486.98 C 387.30 490.65 386.96 494.37 386.18 498.03 C 383.70 510.39 383.88 522.48 384.03 535.00 C 384.60 546.96 386.62 558.73 391.21 569.84 C 393.08 577.09 396.62 583.48 399.79 590.20 C 401.26 593.25 403.48 596.61 403.93 599.99 C 403.98 602.70 401.52 604.16 399.03 603.98 C 385.35 603.84 371.68 604.05 358.00 604.00 C 323.34 604.42 288.67 604.29 254.00 604.27 C 250.31 604.20 246.55 604.43 243.11 602.89 C 237.11 600.52 232.62 594.48 232.19 588.03 C 231.87 541.85 232.04 495.42 232.00 449.00 C 232.24 410.32 231.96 371.65 232.00 332.96 C 227.99 333.89 224.07 333.52 220.00 333.56 C 198.67 333.82 177.33 334.02 156.00 334.00 C 150.58 334.09 145.31 333.29 139.83 332.71 C 105.30 327.99 74.33 305.10 59.31 273.70 C 42.11 239.20 45.99 195.81 66.66 163.64 C 77.06 147.23 92.20 134.00 109.78 125.76 C 122.43 119.68 135.98 116.38 149.89 114.89 C 153.56 97.28 160.40 80.55 171.22 66.11 C 184.16 48.57 202.27 35.02 222.87 27.82 C 250.88 17.89 282.66 19.99 308.85 34.15 Z M 231.90 304.96 C 232.11 263.64 231.88 222.33 232.15 181.00 C 232.38 174.21 230.91 166.78 234.77 160.74 C 238.57 154.19 245.51 151.52 251.75 147.77 C 261.49 142.03 271.77 137.31 281.46 131.48 C 294.70 124.00 308.08 116.79 321.32 109.31 C 325.46 106.92 329.78 104.93 334.05 102.79 C 327.73 87.69 317.42 74.45 303.99 65.03 C 290.65 55.88 274.24 50.46 258.00 50.82 C 241.03 50.49 224.10 56.46 210.51 66.52 C 190.23 81.79 178.18 105.84 176.35 130.99 C 176.22 134.45 176.78 137.79 174.83 140.88 C 173.55 142.81 171.87 144.67 169.94 145.98 C 167.01 147.29 164.55 146.19 161.73 145.31 C 158.91 144.31 155.97 144.02 153.00 144.08 C 137.09 145.27 121.68 150.10 108.88 159.83 C 91.13 173.22 80.22 193.86 77.78 215.84 C 76.42 223.28 77.19 230.59 78.15 238.02 C 80.63 254.74 88.48 270.57 100.57 282.42 C 114.13 296.08 132.80 304.16 152.00 305.02 C 157.70 305.08 163.29 305.78 169.00 305.53 C 189.92 304.59 210.94 305.19 231.90 304.96 Z M 417.09 200.04 C 416.82 215.65 417.23 231.32 417.21 246.93 C 417.70 249.04 420.41 248.40 421.99 248.58 C 435.00 248.34 447.99 248.47 461.00 248.70 C 462.87 248.63 465.34 248.99 467.00 247.99 C 467.88 246.26 467.49 243.90 467.59 242.00 C 467.32 227.99 467.65 213.96 467.02 199.97 C 463.65 198.82 460.49 199.28 457.00 199.31 C 445.00 199.70 433.00 199.44 421.00 199.59 C 419.69 199.69 418.38 199.84 417.09 200.04 Z M 299.90 209.00 C 299.83 221.00 299.68 233.00 299.67 245.00 C 299.83 246.46 299.34 248.14 301.16 248.62 C 302.72 248.95 304.41 248.82 306.00 248.78 C 318.94 248.10 332.15 249.01 345.07 248.25 C 347.15 248.02 346.91 246.68 347.00 245.03 C 347.01 234.02 346.97 223.01 347.03 212.00 C 347.01 208.42 347.44 204.69 346.91 201.14 C 345.89 199.27 342.83 199.79 341.00 199.56 C 330.34 199.62 319.67 200.09 309.00 200.00 C 306.10 200.07 303.10 199.78 300.23 200.23 C 299.29 202.84 300.07 206.21 299.90 209.00 Z M 347.05 309.93 C 344.40 307.17 341.44 308.21 338.00 308.00 C 325.71 308.08 313.36 307.85 301.08 308.11 C 299.46 307.68 300.08 311.09 299.86 312.00 C 299.81 327.34 299.81 342.70 299.40 358.04 C 299.24 360.58 301.19 360.21 302.99 360.36 C 310.33 360.40 317.65 359.88 325.00 360.03 C 331.61 360.24 338.29 360.17 344.89 359.76 C 347.57 358.39 346.76 355.49 346.89 353.00 C 346.95 338.64 347.20 324.28 347.05 309.93 Z M 445.00 359.86 C 451.66 359.84 458.36 360.01 465.02 359.68 C 466.33 359.65 467.36 359.26 467.70 357.88 C 468.15 354.98 467.95 351.94 468.00 349.00 C 467.96 336.66 468.08 324.31 467.94 311.98 C 467.76 309.39 466.70 308.13 464.02 308.10 C 449.70 307.88 435.31 308.06 420.97 308.03 C 418.36 307.82 417.08 309.48 417.15 311.97 C 417.28 326.99 417.46 342.00 417.30 357.03 C 417.25 358.74 418.10 360.09 419.97 359.98 C 428.30 360.04 436.68 360.03 445.00 359.86 Z M 310.00 470.79 C 320.99 470.82 332.03 471.14 343.02 470.94 C 344.28 470.89 346.91 470.68 346.90 468.96 C 347.23 452.94 347.35 437.00 347.07 420.97 C 347.13 419.40 346.85 418.08 345.01 418.05 C 331.66 418.10 318.35 418.09 305.00 417.99 C 303.47 418.05 301.75 417.83 300.30 418.34 C 298.61 419.57 299.39 422.17 299.31 424.01 C 299.78 438.32 299.80 452.69 299.74 467.01 C 299.91 468.31 299.41 470.35 301.14 470.71 C 304.04 471.13 307.08 470.77 310.00 470.79 Z" id="p1" />
<path d="M 258.00 50.82 C 274.24 50.46 290.65 55.88 303.99 65.03 C 317.42 74.45 327.73 87.69 334.05 102.79 C 329.78 104.93 325.46 106.92 321.32 109.31 C 308.08 116.79 294.70 124.00 281.46 131.48 C 271.77 137.31 261.49 142.03 251.75 147.77 C 245.51 151.52 238.57 154.19 234.77 160.74 C 230.91 166.78 232.38 174.21 232.15 181.00 C 231.88 222.33 232.11 263.64 231.90 304.96 C 210.94 305.19 189.92 304.59 169.00 305.53 C 163.29 305.78 157.70 305.08 152.00 305.02 C 132.80 304.16 114.13 296.08 100.57 282.42 C 88.48 270.57 80.63 254.74 78.15 238.02 C 77.19 230.59 76.42 223.28 77.78 215.84 C 80.22 193.86 91.13 173.22 108.88 159.83 C 121.68 150.10 137.09 145.27 153.00 144.08 C 155.97 144.02 158.91 144.31 161.73 145.31 C 164.55 146.19 167.01 147.29 169.94 145.98 C 171.87 144.67 173.55 142.81 174.83 140.88 C 176.78 137.79 176.22 134.45 176.35 130.99 C 178.18 105.84 190.23 81.79 210.51 66.52 C 224.10 56.46 241.03 50.49 258.00 50.82 Z" id="p2" />
<path d="M 457.00 199.31 C 460.49 199.28 463.65 198.82 467.02 199.97 C 467.65 213.96 467.32 227.99 467.59 242.00 C 467.49 243.90 467.88 246.26 467.00 247.99 C 465.34 248.99 462.87 248.63 461.00 248.70 C 447.99 248.47 435.00 248.34 421.99 248.58 C 420.41 248.40 417.70 249.04 417.21 246.93 C 417.23 231.32 416.82 215.65 417.09 200.04 C 418.38 199.84 419.69 199.69 421.00 199.59 C 433.00 199.44 445.00 199.70 457.00 199.31 Z" id="p3" />
<path d="M 300.23 200.23 C 303.10 199.78 306.10 200.07 309.00 200.00 C 319.67 200.09 330.34 199.62 341.00 199.56 C 342.83 199.79 345.89 199.27 346.91 201.14 C 347.44 204.69 347.01 208.42 347.03 212.00 C 346.97 223.01 347.01 234.02 347.00 245.03 C 346.91 246.68 347.15 248.02 345.07 248.25 C 332.15 249.01 318.94 248.10 306.00 248.78 C 304.41 248.82 302.72 248.95 301.16 248.62 C 299.34 248.14 299.83 246.46 299.67 245.00 C 299.68 233.00 299.83 221.00 299.90 209.00 C 300.07 206.21 299.29 202.84 300.23 200.23 Z" id="p4" />
<path d="M 301.08 308.11 C 313.36 307.85 325.71 308.08 338.00 308.00 C 341.44 308.21 344.40 307.17 347.05 309.93 C 347.20 324.28 346.95 338.64 346.89 353.00 C 346.76 355.49 347.57 358.39 344.89 359.76 C 338.29 360.17 331.61 360.24 325.00 360.03 C 317.65 359.88 310.33 360.40 302.99 360.36 C 301.19 360.21 299.24 360.58 299.40 358.04 C 299.81 342.70 299.81 327.34 299.86 312.00 C 300.08 311.09 299.46 307.68 301.08 308.11 Z" id="p5" />
<path d="M 420.97 308.03 C 435.31 308.06 449.70 307.88 464.02 308.10 C 466.70 308.13 467.76 309.39 467.94 311.98 C 468.08 324.31 467.96 336.66 468.00 349.00 C 467.95 351.94 468.15 354.98 467.70 357.88 C 467.36 359.26 466.33 359.65 465.02 359.68 C 458.36 360.01 451.66 359.84 445.00 359.86 C 436.68 360.03 428.30 360.04 419.97 359.98 C 418.10 360.09 417.25 358.74 417.30 357.03 C 417.46 342.00 417.28 326.99 417.15 311.97 C 417.08 309.48 418.36 307.82 420.97 308.03 Z" id="p6" />
<path d="M 519.17 401.66 C 525.48 400.69 531.65 401.08 538.00 400.98 C 544.69 400.76 551.45 401.87 558.01 403.07 C 580.40 407.80 601.49 419.14 617.78 435.22 C 619.76 437.25 621.67 439.33 623.78 441.22 C 623.19 432.27 631.28 425.00 639.98 425.39 C 647.30 425.92 653.29 433.85 652.73 440.99 C 652.60 456.34 652.96 471.68 652.51 487.00 C 652.36 490.40 651.79 493.84 649.44 496.45 C 647.50 498.46 645.14 500.35 642.49 501.30 C 638.64 502.50 634.01 501.51 630.00 501.57 C 617.00 501.47 604.00 501.71 591.00 501.60 C 586.38 501.52 580.82 502.11 576.95 499.10 C 570.80 495.04 568.38 486.10 571.50 479.47 C 573.82 474.01 580.26 470.80 586.00 470.99 C 593.73 471.00 601.47 471.02 609.20 470.99 C 602.17 459.97 592.70 450.33 581.59 443.40 C 570.24 436.34 557.17 431.85 543.84 430.64 C 507.90 426.24 470.69 445.66 453.46 477.45 C 445.64 491.63 441.41 507.79 441.72 524.00 C 441.94 541.89 447.18 559.83 457.33 574.64 C 467.69 590.05 482.87 602.09 500.19 608.76 C 510.26 612.53 521.24 614.88 532.00 615.00 C 555.46 615.73 579.03 607.26 596.35 591.34 C 609.43 579.59 618.47 563.96 622.88 546.99 C 623.87 543.41 624.39 539.82 626.96 536.96 C 629.43 534.40 633.08 533.26 636.49 532.62 C 643.06 531.29 650.39 535.29 651.81 542.10 C 652.75 547.66 650.77 553.81 649.29 559.17 C 642.42 582.61 627.80 603.62 608.60 618.65 C 592.99 630.73 574.58 639.00 555.01 641.92 C 531.48 645.69 506.65 642.87 484.80 633.23 C 464.27 624.31 446.35 609.75 433.78 591.21 C 413.93 562.50 408.17 525.65 416.81 491.98 C 423.03 468.42 436.56 446.89 454.86 430.84 C 472.94 415.17 495.27 404.35 519.17 401.66 Z" id="p7" />
<path d="M 300.30 418.34 C 301.75 417.83 303.47 418.05 305.00 417.99 C 318.35 418.09 331.66 418.10 345.01 418.05 C 346.85 418.08 347.13 419.40 347.07 420.97 C 347.35 437.00 347.23 452.94 346.90 468.96 C 346.91 470.68 344.28 470.89 343.02 470.94 C 332.03 471.14 320.99 470.82 310.00 470.79 C 307.08 470.77 304.04 471.13 301.14 470.71 C 299.41 470.35 299.91 468.31 299.74 467.01 C 299.80 452.69 299.78 438.32 299.31 424.01 C 299.39 422.17 298.61 419.57 300.30 418.34 Z" id="p8" />
</defs>
<g stroke-width="10pt">
<use stroke="#efeee9" xlink:href="#p0" />
<use stroke="#042b46" xlink:href="#p1" />
<use stroke="#efeee9" xlink:href="#p2" />
<use stroke="#efeee9" xlink:href="#p3" />
<use stroke="#efeee9" xlink:href="#p4" />
<use stroke="#efeee9" xlink:href="#p5" />
<use stroke="#efeee9" xlink:href="#p6" />
<use stroke="#042b46" xlink:href="#p7" />
<use stroke="#efeee9" xlink:href="#p8" />
</g>
<g>
<use fill="#efeee9" xlink:href="#p0" />
<use fill="#042b46" xlink:href="#p1" />
<use fill="#efeee9" xlink:href="#p2" />
<use fill="#efeee9" xlink:href="#p3" />
<use fill="#efeee9" xlink:href="#p4" />
<use fill="#efeee9" xlink:href="#p5" />
<use fill="#efeee9" xlink:href="#p6" />
<use fill="#042b46" xlink:href="#p7" />
<use fill="#efeee9" xlink:href="#p8" />
</g>
</svg>